<svg fill="#000000" xmlns="http://www.w3.org/2000/svg"  viewBox="0 0 50 50" width="50px" height="50px"><path d="M 27.910156 4 C 24.820156 4 22.2 4.5196875 20 5.4296875 L 20 9 L 24 9 L 24 13 L 20 13 L 20 17 L 16 17 L 16 21 L 20 21 L 20 25 L 24 25 L 24 29 L 27 29 L 27 33 L 23 33 L 23 37 L 19 37 L 19 41 L 15.919922 41 L 15.919922 47 L 36 47 L 36 41.320312 L 36.880859 41.570312 C 38.230859 41.960313 39.560234 41.980859 40.740234 41.630859 C 43.730234 40.750859 45.820312 37.939062 45.820312 34.789062 L 45.820312 30.890625 L 48.689453 29.470703 C 49.289453 29.140703 49.720391 28.600938 49.900391 27.960938 C 50.090391 27.310937 50.010156 26.62 49.660156 26 L 45.789062 19.400391 C 44.509062 9.3203906 38.330156 4 27.910156 4 z M 19 37 L 19 33 L 15 33 L 15 37 L 19 37 z M 19 33 L 23 33 L 23 29 L 19 29 L 19 33 z M 16 21 L 12 21 L 12 25 L 16 25 L 16 21 z M 12 21 L 12 17 L 8 17 L 8 21 L 12 21 z M 12 17 L 16 17 L 16 13 L 12 13 L 12 17 z M 13 6 L 13 10 L 17 10 L 17 6 L 13 6 z M 6 10 L 6 14 L 10 14 L 10 10 L 6 10 z M 31 11 L 35 11 L 35 15 L 31 15 L 31 11 z M 24 15 L 28 15 L 28 19 L 32 19 L 32 23 L 28 23 L 28 19 L 24 19 L 24 15 z M 0 16 L 0 20 L 4 20 L 4 16 L 0 16 z M 6 23 L 6 27 L 10 27 L 10 23 L 6 23 z M 12 27 L 12 31 L 16 31 L 16 27 L 12 27 z M 8 33 L 8 37 L 12 37 L 12 33 L 8 33 z M 26 37 L 30 37 L 30 41 L 26 41 L 26 37 z M 2 38 L 2 42 L 6 42 L 6 38 L 2 38 z"/></svg>