<?xml version="1.0"?>
<svg fill="#000000" xmlns="http://www.w3.org/2000/svg" viewBox="0 0 30 30" width="30px"
    height="30px">
    <path
        d="M 13 4 C 10.795 4 9 5.795 9 8 C 9 10.205 10.795 12 13 12 C 15.205 12 17 10.206 17 8 C 17 5.794 15.205 4 13 4 z M 6.9570312 6.9882812 A 1.0001 1.0001 0 0 0 6.0664062 7.6425781 L 3.1191406 15.326172 A 1.0001 1.0001 0 0 0 3.1035156 15.367188 C 2.6804454 16.634435 3.6659517 18 5.0019531 18 L 10.845703 18 C 11.000617 18.522931 11.131981 18.966266 11.193359 19.166016 L 12.84375 25 L 21.142578 25 L 19.498047 19.251953 L 22.105469 19.429688 L 24.958984 24.154297 L 25.105469 24.447266 A 1.0001163 1.0001163 0 1 0 26.894531 23.552734 L 23.894531 17.552734 A 1.0001 1.0001 0 0 0 23.388672 17.080078 C 23.388672 17.080078 23.317678 17.051298 23.316406 17.050781 L 23.314453 17.050781 C 23.190949 17.000587 17.467193 14.674093 16.453125 14.275391 C 16.003125 14.097391 15.513 14 15 14 C 14.818851 14 14.637442 14.025364 14.457031 14.0625 L 6.4199219 15 L 7.9375 8.3457031 A 1.0001 1.0001 0 0 0 6.9570312 6.9882812 z" />
</svg>