<svg fill="#000000" height="50px" viewBox="0 0 50 50" width="50px"
    xmlns="http://www.w3.org/2000/svg">
    <path
        d="M47.486,30.073L44,31.817v4.783c0,2.366-0.991,4.627-2.721,6.202c-1.719,1.566-3.953,2.309-6.271,2.092L33,44.766V50h-1h-1 H11h-1H9v-6.801c0-3.596-1.149-7.169-3.324-10.332C3.271,29.369,2,25.266,2,21C2,10.848,7.517,0,23,0 c12.231,0,19.478,6.319,20.968,18.277l4.597,7.92C49.347,27.608,48.869,29.304,47.486,30.073z M16,23h4l-4,7l11-9h-5l5-5h-6L16,23z M30.135,23.897C33.533,23.31,36,20.408,36,17c0-3.859-3.141-7-7-7c-0.462,0-0.919,0.045-1.366,0.133C26.497,7.626,24.02,6,21.2,6 c-3.895,0-7.064,3.161-7.08,7.052C11.266,13.237,9,15.619,9,18.52c0,2.324,1.472,4.401,3.662,5.171 c0.522,0.187,1.092-0.091,1.275-0.612c0.183-0.521-0.091-1.092-0.612-1.274C11.935,21.315,11,19.995,11,18.52 c0-1.919,1.561-3.479,3.48-3.479c0.194,0,0.383,0.021,0.569,0.052l1.39,0.232l-0.239-1.389c-0.053-0.309-0.079-0.589-0.079-0.855 c0-2.801,2.279-5.08,5.08-5.08c2.259,0,4.211,1.456,4.859,3.622l0.3,1.003l0.989-0.346C27.877,12.094,28.433,12,29,12 c2.757,0,5,2.243,5,5c0,2.394-1.809,4.512-4.207,4.927c-0.544,0.094-0.908,0.611-0.814,1.156c0.084,0.486,0.507,0.829,0.984,0.829 C30.02,23.912,30.077,23.907,30.135,23.897z" />
</svg>