<?xml version="1.0"?>
<svg fill="#000000" xmlns="http://www.w3.org/2000/svg" viewBox="0 0 30 30" width="30px"
    height="30px">
    <path
        d="M 5.7792969 0 C 5.5242969 0 5.30925 0.1923125 5.28125 0.4453125 L 5.2714844 0.54492188 C 5.2384844 0.84792187 5.0235156 1.1046406 4.7285156 1.1816406 C 4.2455156 1.3076406 3.7929062 1.5018125 3.3789062 1.7578125 C 3.1939062 1.8728125 2.9590625 1.8684219 2.7890625 1.7324219 L 2.5800781 1.5644531 C 2.3810781 1.4054531 2.0940625 1.4215625 1.9140625 1.6015625 L 1.6015625 1.9140625 C 1.4215625 2.0940625 1.4054531 2.3810781 1.5644531 2.5800781 L 1.7324219 2.7890625 C 1.8684219 2.9590625 1.8728125 3.1929063 1.7578125 3.3789062 C 1.5018125 3.7929063 1.3056875 4.2455156 1.1796875 4.7285156 C 1.1026875 5.0235156 0.84696875 5.2384844 0.54296875 5.2714844 L 0.44335938 5.28125 C 0.19135937 5.30925 3.7007434e-17 5.5242969 0 5.7792969 L 0 6.2207031 C 0 6.4757031 0.1923125 6.69075 0.4453125 6.71875 L 0.54492188 6.7285156 C 0.84792187 6.7625156 1.1046406 6.9764844 1.1816406 7.2714844 C 1.3076406 7.7544844 1.5018125 8.2070937 1.7578125 8.6210938 C 1.8728125 8.8060938 1.8684219 9.0409375 1.7324219 9.2109375 L 1.5644531 9.4199219 C 1.4054531 9.6189219 1.4205625 9.9059375 1.6015625 10.085938 L 1.9121094 10.398438 C 2.0921094 10.578437 2.379125 10.594547 2.578125 10.435547 L 2.7871094 10.267578 C 2.9571094 10.131578 3.1929063 10.127188 3.3789062 10.242188 C 3.7929063 10.498188 4.2455156 10.692359 4.7285156 10.818359 C 5.0235156 10.895359 5.2365313 11.151078 5.2695312 11.455078 L 5.28125 11.554688 C 5.31025 11.807687 5.5242969 12 5.7792969 12 L 6.2207031 12 C 6.4757031 12 6.69075 11.807688 6.71875 11.554688 L 6.7285156 11.455078 C 6.7615156 11.152078 6.9764844 10.895359 7.2714844 10.818359 C 7.7544844 10.692359 8.2070937 10.498187 8.6210938 10.242188 C 8.8060938 10.127187 9.0409375 10.131578 9.2109375 10.267578 L 9.4199219 10.435547 C 9.6189219 10.594547 9.9059375 10.579437 10.085938 10.398438 L 10.398438 10.085938 C 10.578437 9.9059375 10.594547 9.6189219 10.435547 9.4199219 L 10.267578 9.2109375 C 10.131578 9.0409375 10.127188 8.8070937 10.242188 8.6210938 C 10.498188 8.2070938 10.692359 7.7544844 10.818359 7.2714844 C 10.895359 6.9764844 11.151078 6.7615156 11.455078 6.7285156 L 11.554688 6.71875 C 11.807687 6.69075 12 6.4757031 12 6.2207031 L 12 5.7792969 C 12 5.5242969 11.807688 5.30925 11.554688 5.28125 L 11.455078 5.2714844 C 11.152078 5.2384844 10.895359 5.0235156 10.818359 4.7285156 C 10.692359 4.2455156 10.498187 3.7929062 10.242188 3.3789062 C 10.127187 3.1939062 10.131578 2.9590625 10.267578 2.7890625 L 10.435547 2.5800781 C 10.594547 2.3810781 10.579437 2.0940625 10.398438 1.9140625 L 10.085938 1.6015625 C 9.9059375 1.4215625 9.6189219 1.4054531 9.4199219 1.5644531 L 9.2109375 1.7324219 C 9.0409375 1.8684219 8.8070938 1.8728125 8.6210938 1.7578125 C 8.2070938 1.5018125 7.7544844 1.3056875 7.2714844 1.1796875 C 6.9764844 1.1036875 6.7615156 0.84792188 6.7285156 0.54492188 L 6.71875 0.4453125 C 6.69075 0.1923125 6.4757031 -3.7007434e-17 6.2207031 0 L 5.7792969 0 z M 14.28125 2.0039062 C 13.83525 1.9929063 13.394984 2.0195 12.958984 2.0625 C 13.618984 3.2255 14 4.567 14 6 C 14 10.419 10.419 14 6 14 C 4.95 14 3.94925 13.792781 3.03125 13.425781 C 3.15125 16.540781 4.546375 19.325953 6.734375 21.251953 C 7.564375 21.981953 8 23.061969 8 24.167969 L 8 28 L 18 28 L 18 26.441406 C 18 25.580406 18.550187 24.816922 19.367188 24.544922 L 22.632812 23.457031 C 23.448813 23.184031 24 22.419594 24 21.558594 L 24 17.744141 L 26.267578 16.962891 A 1 1 0 0 0 27 16 A 1 1 0 0 0 26.773438 15.369141 L 26.746094 15.335938 A 1 1 0 0 0 26.716797 15.302734 L 23.958984 11.998047 C 23.5582 6.4851023 19.861766 2.1444805 14.28125 2.0039062 z M 6 4 C 7.105 4 8 4.895 8 6 C 8 7.105 7.105 8 6 8 C 4.895 8 4 7.105 4 6 C 4 4.895 4.895 4 6 4 z" />
</svg>