<svg fill="#000000" height="50px" viewBox="0 0 50 50" width="50px"
    xmlns="http://www.w3.org/2000/svg">
    <path
        d="M 25 9 C 19.568 9 14.485641 11.014437 11.056641 14.523438 C 7.9096406 17.746437 4.075 19.836859 0 20.630859 L 0 21.53125 C 4.127 20.95025 8.002875 19.41125 11.171875 17.03125 C 14.583875 14.46925 19.624 13 25 13 C 30.376 13 35.416125 14.468297 38.828125 17.029297 C 41.997125 19.409297 45.873 20.95125 50 21.53125 L 50 20.630859 C 45.925 19.836859 42.090359 17.745438 38.943359 14.523438 C 35.514359 11.013438 30.432 9 25 9 z M 25 15 C 20.048 15 15.446047 16.323859 12.373047 18.630859 C 10.321047 20.171859 7.9957656 21.382 5.5097656 22.25 C 7.6547656 21.887 9.6662188 21.402922 11.449219 20.794922 C 14.791219 19.653922 19.73 19 25 19 C 30.27 19 35.208781 19.653922 38.550781 20.794922 C 40.333781 21.402922 42.344234 21.887 44.490234 22.25 C 42.004234 21.383 39.678953 20.171859 37.626953 18.630859 C 34.553953 16.323859 29.952 15 25 15 z M 25 21 C 19.941 21 15.237703 21.6145 12.095703 22.6875 C 8.6587031 23.8595 4.456 24.609859 0 24.880859 L 0 25.119141 C 4.456 25.389141 8.6587031 26.1395 12.095703 27.3125 C 15.238703 28.3845 19.941 29 25 29 C 30.059 29 34.762297 28.3855 37.904297 27.3125 C 41.341297 26.1405 45.544 25.390141 50 25.119141 L 50 24.880859 C 45.544 24.610859 41.341297 23.8595 37.904297 22.6875 C 34.761297 21.6145 30.059 21 25 21 z M 5.5097656 27.75 C 7.9957656 28.617 10.321047 29.828141 12.373047 31.369141 C 15.446047 33.676141 20.048 35 25 35 C 29.952 35 34.553953 33.676141 37.626953 31.369141 C 39.678953 29.828141 42.004234 28.618 44.490234 27.75 C 42.345234 28.113 40.333781 28.597078 38.550781 29.205078 C 35.208781 30.346078 30.27 31 25 31 C 19.73 31 14.791219 30.346078 11.449219 29.205078 C 9.6662188 28.597078 7.6557656 28.113 5.5097656 27.75 z M 0 28.46875 L 0 29.369141 C 4.075 30.163141 7.9096406 32.254562 11.056641 35.476562 C 14.485641 38.986562 19.568 41 25 41 C 30.432 41 35.514359 38.985562 38.943359 35.476562 C 42.090359 32.253562 45.925 30.163141 50 29.369141 L 50 28.46875 C 45.873 29.04975 41.997125 30.589703 38.828125 32.970703 C 35.416125 35.531703 30.376 37 25 37 C 19.624 37 14.583875 35.531703 11.171875 32.970703 C 8.002875 30.589703 4.127 29.04975 0 28.46875 z" />
</svg>