<svg fill="#000000" height="50px" viewBox="0 0 50 50" width="50px"
    xmlns="http://www.w3.org/2000/svg">
    <path
        d="M 29.029297 1.9960938 A 1.0001 1.0001 0 0 0 28.761719 2.0292969 C 28.761719 2.0292969 27.52298 2.3366276 26.345703 3.3652344 C 25.748515 3.8870085 25.157395 4.6174947 24.716797 5.5703125 C 24.321395 5.1429491 23.877241 4.8158917 23.439453 4.5976562 C 22.20169 3.9806357 20.994141 4 20.994141 4 A 1.0001 1.0001 0 1 0 21.005859 6 C 21.005859 6 21.789639 6.00924 22.546875 6.3867188 C 23.135026 6.6799106 23.676061 7.0915557 23.894531 8.0449219 C 17.245586 8.5058118 11.759772 13.076244 9.8183594 19.21875 C 7.6444603 19.763118 6 21.667632 6 24 C 6 26.324565 7.6326797 28.223287 9.7949219 28.775391 C 11.417982 33.929805 15.53296 37.952172 20.765625 39.392578 C 21.62917 40.900631 23.148699 42 25 42 C 26.850213 42 28.367229 40.901496 29.230469 39.394531 C 34.46543 37.954069 38.581967 33.929999 40.205078 28.773438 C 42.366747 28.220524 44 26.323708 44 24 C 44 21.667632 42.35554 19.763118 40.181641 19.21875 C 38.236269 13.06372 32.731709 8.4899214 26.064453 8.0449219 C 26.268545 6.4148013 26.968475 5.4771341 27.662109 4.8710938 C 28.482333 4.1544504 29.238281 3.9707031 29.238281 3.9707031 A 1.0001 1.0001 0 0 0 29.029297 1.9960938 z M 17.919922 24.001953 C 18.049641 23.991859 18.184156 24.006531 18.316406 24.050781 L 21.316406 25.050781 C 21.839406 25.225781 22.122266 25.792406 21.947266 26.316406 C 21.808266 26.735406 21.419 27 21 27 C 20.896 27 20.788594 26.982266 20.683594 26.947266 L 17.683594 25.947266 C 17.160594 25.772266 16.877734 25.207594 17.052734 24.683594 C 17.183984 24.291344 17.530766 24.032234 17.919922 24.001953 z M 32.080078 24.001953 C 32.469094 24.032375 32.817969 24.291344 32.949219 24.683594 C 33.123219 25.208594 32.840406 25.774219 32.316406 25.949219 L 29.316406 26.949219 C 29.211406 26.984219 29.104 27 29 27 C 28.581 27 28.191734 26.735406 28.052734 26.316406 C 27.877734 25.792406 28.159594 25.225781 28.683594 25.050781 L 31.683594 24.050781 C 31.815594 24.006781 31.950406 23.991812 32.080078 24.001953 z M 25 32 C 26.104 32 27 32.896 27 34 C 27 35.104 26.104 36 25 36 C 23.896 36 23 35.104 23 34 C 23 32.896 23.896 32 25 32 z M 19.972656 41.988281 A 1.0001 1.0001 0 0 0 19.164062 42.451172 L 17.164062 45.498047 A 1.0001 1.0001 0 1 0 18.835938 46.595703 L 20.835938 43.548828 A 1.0001 1.0001 0 0 0 19.972656 41.988281 z M 29.988281 41.988281 A 1.0001 1.0001 0 0 0 29.167969 43.554688 L 31.167969 46.554688 A 1.0001 1.0001 0 1 0 32.832031 45.445312 L 30.832031 42.445312 A 1.0001 1.0001 0 0 0 29.988281 41.988281 z M 24.984375 42.986328 A 1.0001 1.0001 0 0 0 24 44 L 24 47 A 1.0001 1.0001 0 1 0 26 47 L 26 44 A 1.0001 1.0001 0 0 0 24.984375 42.986328 z" />
</svg>