<?xml version="1.0"?>
<svg fill="#000000" xmlns="http://www.w3.org/2000/svg" viewBox="0 0 30 30" width="30px"
    height="30px">
    <path
        d="M 15 3 A 3 3 0 0 0 12 6 A 3 3 0 0 0 15 9 A 3 3 0 0 0 18 6 A 3 3 0 0 0 15 3 z M 15 11 A 1.0001 1.0001 0 0 0 14.900391 11.003906 C 14.898401 11.003935 14.89652 11.003876 14.894531 11.003906 C 14.508033 11.009728 14.137734 11.043396 13.792969 11.101562 C 12.020355 11.398461 10.572494 12.625825 9.8945312 14.251953 L 8.2207031 18.271484 L 4.5527344 20.105469 A 1.0001161 1.0001161 0 0 0 5.4472656 21.894531 L 9.4472656 19.894531 A 1.0001 1.0001 0 0 0 9.9238281 19.384766 L 11 16.798828 L 11 21.148438 L 7.8378906 23.388672 C 7.1248906 23.895672 6.8019531 24.835891 7.1269531 25.712891 C 7.4239531 26.514891 8.2494688 27 9.1054688 27 L 11.193359 27 C 10.902359 26.184 10.829969 25.267422 11.792969 24.107422 C 12.394969 23.381422 13.277703 22.955859 14.220703 23.005859 C 14.644703 23.027859 14.847953 23.113062 15.001953 23.164062 C 15.179953 23.224062 18.310547 24.216797 18.310547 24.216797 L 13.925781 25.003906 A 1.0001 1.0001 0 0 0 14 27 L 21.011719 27 C 21.824694 27 22.399049 26.427972 22.705078 25.71875 A 1.0001 1.0001 0 0 0 23 25.011719 C 23 24.366731 22.685553 23.760309 22.164062 23.388672 A 1.0001 1.0001 0 0 0 22.160156 23.388672 L 19 21.148438 L 19 16.798828 L 20.076172 19.384766 A 1.0001 1.0001 0 0 0 20.552734 19.894531 L 24.552734 21.894531 A 1.0001163 1.0001163 0 1 0 25.447266 20.105469 L 21.779297 18.271484 L 20.105469 14.251953 C 19.427931 12.625617 17.979271 11.398861 16.207031 11.101562 L 16.205078 11.101562 C 15.857113 11.042765 15.482809 11.009053 15.091797 11.003906 A 1.0001 1.0001 0 0 0 15 11 z" />
</svg>