<svg fill="#000000" height="50px" viewBox="0 0 50 50" width="50px"
    xmlns="http://www.w3.org/2000/svg">
    <path
        d="M 25.033203 1 C 24.924203 0.998 24.773687 1.0505313 24.679688 1.1445312 L 21.9375 3.3574219 L 19.277344 2.0839844 C 19.147344 1.9969844 18.983891 1.9763438 18.837891 2.0273438 C 18.690891 2.0783438 18.574391 2.1937969 18.525391 2.3417969 L 18 4 L 14 4.5 C 13.787 4.5 13.597344 4.6349375 13.527344 4.8359375 C 13.458344 5.0369375 13.523406 5.2605781 13.691406 5.3925781 L 15.732422 7 L 34.269531 7 L 36.308594 5.3925781 C 36.475594 5.2605781 36.541656 5.0388906 36.472656 4.8378906 C 36.403656 4.6358906 36.213 4.5 36 4.5 L 32 4 L 31.474609 2.3417969 C 31.425609 2.1937969 31.309109 2.0783437 31.162109 2.0273438 C 31.015109 1.9773437 30.851656 1.9969844 30.722656 2.0839844 L 28.066406 3.3554688 L 25.386719 1.1484375 C 25.292719 1.0544375 25.166203 1 25.033203 1 z M 16.769531 9 C 12.723531 13.074 10.066406 19.352391 10.066406 23.400391 C 10.066406 28.517391 14.316047 32.850672 20.248047 34.388672 C 18.195047 32.721672 16.867188 29.68 16.867188 26 C 16.867188 22.378 18.492297 13.632 21.279297 9 L 16.769531 9 z M 23.638672 9 C 21.356672 11.811 19 20.597922 19 26.169922 C 19 31.072922 21.243 34 25 34 C 28.757 34 31 31.072922 31 26.169922 C 31 20.597922 28.643328 11.811 26.361328 9 L 23.638672 9 z M 28.720703 9 C 31.507703 13.632 33.199219 22.444406 33.199219 26.066406 C 33.199219 29.748406 31.803047 32.726578 29.748047 34.392578 C 35.703047 32.857578 40 28.523344 40 23.402344 C 40 19.354344 37.316 13.075 33.25 9 L 28.720703 9 z M 22.576172 35.814453 L 22.15625 38.863281 C 22.07325 39.463281 22.540484 40 23.146484 40 L 26.853516 40 C 27.460516 40 27.92575 39.463281 27.84375 38.863281 L 27.376953 35.814453 C 26.633953 36.045453 25.833562 36.171875 24.976562 36.171875 C 24.119563 36.171875 23.318172 36.045453 22.576172 35.814453 z M 23 42 L 23 48 C 23 48.552 23.448 49 24 49 L 26 49 C 26.552 49 27 48.552 27 48 L 27 42 L 23 42 z" />
</svg>