<?xml version="1.0"?>
<svg fill="#000000" xmlns="http://www.w3.org/2000/svg" viewBox="0 0 50 50" width="50px"
    height="50px">
    <path
        d="M39.5,11c-7.56,0-11.177,5.218-11.476,10.309C27.249,21.136,26.373,21,25.5,21c-5.373,0-8.163,2.843-9.511,5.623 c-0.83-1.349-1.958-2.812-3.602-4.336c-2.681-2.484-3.695-5.051-4.077-6.019c-0.06-0.169-0.242-0.941-0.296-1.199 c0.106-0.1,0.341-0.25,0.504-0.354c0.001-0.001,0.003-0.002,0.004-0.003C9.058,15.495,9.958,16,10.999,16 c0.734,0,1.682-0.291,2.173-0.919c0.49-0.128,0.947-0.421,1.255-0.739c0.209-0.216,0.366-0.452,0.469-0.697 c0.271-0.104,0.525-0.274,0.75-0.503c0.369-0.376,0.619-0.87,0.714-1.362c0.122-0.095,0.229-0.209,0.32-0.339 c0.507-0.73,0.291-1.672,0.213-1.943c-0.443-1.533-1.569-2.337-2.994-3.354c-0.251-0.18-0.485-0.363-0.715-0.544 c-1.098-0.861-2.348-1.835-4.499-1.548C6.54,4.34,4.578,6.014,3.107,7.441C0.929,9.559,0,11.969,0.002,15.501 c0.001,0.595,0.009,1.387,0.066,2.246l0.035,0.538c0.229,3.55,0.613,9.49,3.608,17.376C5.855,41.304,11.922,46,13.537,46 c0.516,0,1.06-0.187,1.689-0.403C16.041,45.316,16.963,45,18,45c0.65,0,1.354,0.147,2.246,0.334C21.662,45.631,23.424,46,26,46 c11.001,0,15.002-10.63,15.81-13.206C43.75,32.13,50,29.45,50,22.5C50,16.785,46.394,11,39.5,11z" />
</svg>