<svg fill="#000000" height="50px" viewBox="0 0 50 50" width="50px"
    xmlns="http://www.w3.org/2000/svg">
    <path
        d="M 9.5 9.96875 C 9.105469 10.015625 8.738281 10.179688 8.4375 10.4375 C 8.4375 10.4375 0 17.070313 0 29 C 0 32.746094 1.296875 36.046875 3.625 38.375 C 5.953125 40.703125 9.253906 42 13 42 C 17.984375 42 22.511719 39.652344 25 35.8125 C 27.488281 39.652344 32.015625 42 37 42 C 40.746094 42 44.046875 40.703125 46.375 38.375 C 48.703125 36.046875 50 32.746094 50 29 C 50 17.078125 41.625 10.4375 41.625 10.4375 C 41.265625 10.136719 40.8125 9.96875 40.34375 9.96875 C 39.488281 9.976563 38.734375 10.53125 38.464844 11.339844 C 38.199219 12.152344 38.476563 13.046875 39.15625 13.5625 C 39.15625 13.5625 46 18.921875 46 29 C 46 31.855469 45.082031 34.042969 43.5625 35.5625 C 42.042969 37.082031 39.855469 38 37 38 C 31.289063 38 27 34.507813 27 29 C 27 26.964844 27.1875 25.0625 27.78125 23.9375 C 28.199219 23.144531 28.046875 22.171875 27.402344 21.546875 C 26.757813 20.925781 25.777344 20.804688 25 21.25 C 24.222656 20.804688 23.242188 20.925781 22.597656 21.546875 C 21.953125 22.171875 21.800781 23.144531 22.21875 23.9375 C 22.8125 25.0625 23 26.964844 23 29 C 23 34.507813 18.710938 38 13 38 C 10.144531 38 7.957031 37.082031 6.4375 35.5625 C 4.917969 34.042969 4 31.855469 4 29 C 4 18.929688 10.90625 13.5625 10.90625 13.5625 C 11.59375 13.042969 11.867188 12.140625 11.589844 11.328125 C 11.316406 10.511719 10.546875 9.964844 9.6875 9.96875 C 9.625 9.964844 9.5625 9.964844 9.5 9.96875 Z" />
</svg>