<svg fill="#000000" height="50px" viewBox="0 0 50 50" width="50px"
    xmlns="http://www.w3.org/2000/svg">
    <path
        d="M 17 4 C 17 4.417969 16.742188 5.820313 16.5625 6.6875 C 14.53125 16.308594 11.621094 19.003906 9.15625 21.15625 L 9.03125 21.28125 C 7.277344 22.816406 6 23.914063 6 27.1875 C 6 30.0625 8.941406 33 11.8125 33 C 15.558594 33 17.207031 34.582031 18.8125 36.125 C 20.34375 37.597656 21.789063 39 25 39 C 28.210938 39 29.65625 37.597656 31.1875 36.125 C 32.792969 34.582031 34.441406 33 38.1875 33 C 41.058594 33 44 30.0625 44 27.1875 C 44 23.914063 42.722656 22.816406 40.96875 21.28125 L 40.84375 21.15625 C 38.378906 19.003906 35.472656 16.308594 33.4375 6.6875 C 33.269531 5.90625 33 4.492188 33 4 Z M 15 37.59375 L 14.28125 38.28125 L 11.28125 41.28125 L 12.71875 42.71875 L 14 41.4375 L 14 46 L 16 46 L 16 41.4375 L 17.28125 42.71875 L 18.71875 41.28125 L 15.71875 38.28125 Z M 35 37.59375 L 34.28125 38.28125 L 31.28125 41.28125 L 32.71875 42.71875 L 34 41.4375 L 34 46 L 36 46 L 36 41.4375 L 37.28125 42.71875 L 38.71875 41.28125 L 35.71875 38.28125 Z" />
</svg>