<svg fill="#000000" xmlns="http://www.w3.org/2000/svg"  viewBox="0 0 50 50" width="50px" height="50px"><path d="M 5 6.9199219 C 2.2 6.9199219 -0.080078125 9.2 -0.080078125 12 C -0.080078125 14.8 2.2 17.080078 5 17.080078 C 5.92 17.080078 6.7890625 16.830391 7.5390625 16.400391 C 8.0190625 16.120391 8.4505469 15.769609 8.8105469 15.349609 C 9.6005469 14.459609 10.080078 13.28 10.080078 12 C 10.080078 9.2 7.8 6.9199219 5 6.9199219 z M 12.052734 16.568359 C 11.799 16.546063 11.542109 16.549578 11.287109 16.580078 C 10.290109 16.696078 9.3821719 17.212078 8.8261719 17.955078 C 8.1671719 18.745078 7.8575625 19.786547 7.9765625 20.810547 C 7.9987332 20.999472 8.0477256 21.180349 8.0976562 21.361328 L 6.2402344 19.832031 C 5.1292344 18.906031 3.6085312 18.722609 2.2695312 19.349609 C 0.87053125 20.004609 0 21.365391 0 22.900391 L 0 23 C 0 24.292 0.600375 25.448375 1.609375 26.109375 L 15.849609 37.859375 C 16.732609 38.616375 17.759391 39 18.900391 39 L 45 39 C 46.1 39 47.161109 38.544953 47.912109 37.751953 C 48.676109 36.944953 49.061047 35.876281 48.998047 34.738281 C 48.900779 33.179803 47.904022 31.910266 46.494141 31.335938 C 47.508479 31.20848 48.414216 30.546082 48.783203 29.576172 C 49.281203 28.277172 48.721469 26.789234 47.480469 26.115234 C 47.449469 26.098234 47.417719 26.083313 47.386719 26.070312 L 36.085938 21.371094 C 36.014938 21.341094 35.939281 21.319641 35.863281 21.306641 C 35.034281 21.170641 34.383156 21.211125 33.660156 21.453125 L 26.960938 23.853516 C 26.864937 23.887516 26.775312 23.934141 26.695312 23.994141 C 26.671312 23.998141 26.631656 23.994141 26.597656 23.994141 L 22.798828 23.994141 C 22.515828 23.994141 22.128687 23.86675 21.929688 23.71875 L 14.142578 17.427734 C 13.550828 16.933484 12.813937 16.63525 12.052734 16.568359 z M 35.181641 29.046875 L 44.195312 31 L 30.228516 31 L 35.181641 29.046875 z M 15.021484 39.720703 L 13.105469 43.552734 C 12.950469 43.862734 12.968391 44.230391 13.150391 44.525391 C 13.332391 44.820391 13.653 45 14 45 L 18 45 C 18.379 45 18.724531 44.786266 18.894531 44.447266 L 20.617188 41 L 18.900391 41 C 17.477391 41 16.147484 40.538703 15.021484 39.720703 z M 48.373047 40.511719 C 47.629047 40.829719 46.822 41 46 41 L 42.382812 41 L 44.105469 44.447266 C 44.274469 44.786266 44.621 45 45 45 L 49 45 C 49.347 45 49.668563 44.820391 49.851562 44.525391 C 50.034562 44.230391 50.049531 43.862734 49.894531 43.552734 L 48.373047 40.511719 z"/></svg>