<svg fill="#000000" height="50px" viewBox="0 0 50 50" width="50px"
    xmlns="http://www.w3.org/2000/svg">
    <path
        d="M 34 0 C 25.601563 11 21 36.800781 21 39 C 21 41.199219 22.800781 43 25 43 C 27.199219 43 29 41.199219 29 39 C 29 35 25 23.5 34 0 Z M 1 29 C 0.449219 29 0 29.445313 0 30 L 0 49 C 0 49.554688 0.449219 50 1 50 L 49 50 C 49.554688 50 50 49.554688 50 49 L 50 30 C 50 29.445313 49.554688 29 49 29 L 33.5 29 C 31.699219 29 30.199219 30.605469 30.5 32.40625 C 30.800781 34.707031 31.09375 38.398438 31.09375 39 C 31.09375 42.300781 28.394531 45 25.09375 45 C 21.792969 45 19.09375 42.300781 19.09375 39 C 19.09375 38.199219 19.59375 34.914063 20.09375 32.8125 C 20.59375 30.914063 19.09375 29 17.09375 29 Z" />
</svg>