<svg fill="#000000" height="50px" viewBox="0 0 50 50" width="50px"
    xmlns="http://www.w3.org/2000/svg">
    <path
        d="M 30.59375 0.1875 C 29.09375 0.25 27.644531 0.65625 26.59375 1.40625 C 25.695313 2.007813 24.40625 2.007813 23.40625 1.40625 C 21.304688 0.0078125 17.59375 -0.199219 15.09375 1 C 13.394531 1.800781 11.792969 2.605469 10.09375 3.40625 C 7.09375 4.804688 3.898438 6.292969 0.5 8.09375 C 0.300781 8.292969 0.09375 8.511719 0.09375 8.8125 C -0.0078125 9.113281 0.113281 9.488281 0.3125 9.6875 C 0.410156 9.808594 0.503906 9.945313 0.625 10.09375 C 0.734375 10.230469 0.867188 10.40625 1 10.5625 C 1.011719 10.578125 1.015625 10.578125 1.03125 10.59375 C 3.21875 13.183594 8.21875 18.453125 15 21.09375 C 15.363281 21.269531 15.695313 21.402344 16 21.5 L 16 41 C 16 45.945313 20.054688 50 25 50 C 29.945313 50 34 45.945313 34 41 L 34 21.375 C 34.214844 21.316406 34.480469 21.234375 34.8125 21.09375 C 35.21875 20.933594 35.605469 20.773438 36 20.59375 C 36.414063 20.40625 36.820313 20.203125 37.21875 20 C 37.257813 19.980469 37.304688 19.957031 37.34375 19.9375 C 37.726563 19.742188 38.101563 19.523438 38.46875 19.3125 C 38.519531 19.285156 38.574219 19.277344 38.625 19.25 C 38.984375 19.042969 39.3125 18.808594 39.65625 18.59375 C 39.710938 18.558594 39.789063 18.535156 39.84375 18.5 C 40.179688 18.285156 40.492188 18.0625 40.8125 17.84375 C 40.871094 17.804688 40.941406 17.789063 41 17.75 C 41.316406 17.53125 41.605469 17.285156 41.90625 17.0625 C 41.964844 17.019531 42.035156 16.980469 42.09375 16.9375 C 42.390625 16.714844 42.6875 16.503906 42.96875 16.28125 C 43.027344 16.234375 43.066406 16.203125 43.125 16.15625 C 43.398438 15.933594 43.675781 15.691406 43.9375 15.46875 C 43.996094 15.421875 44.039063 15.390625 44.09375 15.34375 C 44.347656 15.125 44.605469 14.902344 44.84375 14.6875 C 44.902344 14.636719 44.972656 14.582031 45.03125 14.53125 C 45.261719 14.320313 45.46875 14.113281 45.6875 13.90625 C 45.746094 13.851563 45.816406 13.804688 45.875 13.75 C 46.085938 13.550781 46.277344 13.351563 46.46875 13.15625 C 46.527344 13.097656 46.566406 13.027344 46.625 12.96875 C 46.808594 12.78125 47.015625 12.585938 47.1875 12.40625 C 47.246094 12.34375 47.285156 12.308594 47.34375 12.25 C 47.503906 12.078125 47.664063 11.910156 47.8125 11.75 C 47.875 11.683594 47.941406 11.597656 48 11.53125 C 48.132813 11.382813 48.253906 11.234375 48.375 11.09375 C 48.4375 11.019531 48.5 10.976563 48.5625 10.90625 C 48.667969 10.785156 48.78125 10.644531 48.875 10.53125 C 48.953125 10.4375 48.992188 10.367188 49.0625 10.28125 C 49.125 10.203125 49.222656 10.105469 49.28125 10.03125 C 49.402344 9.871094 49.496094 9.722656 49.59375 9.59375 C 49.992188 9.394531 50 9.113281 50 8.8125 C 49.898438 8.511719 49.699219 8.292969 49.5 8.09375 C 46.101563 6.292969 42.90625 4.804688 39.90625 3.40625 C 38.304688 2.605469 36.605469 1.898438 34.90625 1 C 33.65625 0.398438 32.09375 0.125 30.59375 0.1875 Z M 16.5 8 L 33.5 8 C 34.875 8 36 9.125 36 10.5 C 36 11.75 35.078125 12.789063 33.875 12.96875 C 33.871094 12.976563 33.878906 12.992188 33.875 13 L 16.5 13 C 15.125 13 14 11.875 14 10.5 C 14 9.125 15.125 8 16.5 8 Z M 18 15 L 32 15 L 32 41 C 32 44.855469 28.855469 48 25 48 C 21.144531 48 18 44.855469 18 41 Z" />
</svg>