<svg fill="#000000" height="50px" viewBox="0 0 50 50" width="50px"
    xmlns="http://www.w3.org/2000/svg">
    <path
        d="M 27.875 0.03125 C 27.238281 0.03125 26.703125 0.199219 26.28125 0.59375 L 24.5625 2.34375 L 25.3125 3.09375 C 26.074219 3.855469 26.476563 4.949219 26.46875 6.25 C 26.449219 9.0625 24.574219 12.59375 21.59375 15.5 C 18.414063 18.601563 14.921875 20.34375 12.25 20.34375 C 11.019531 20.34375 9.953125 19.984375 9.1875 19.21875 L 8.46875 18.5 L 4.28125 22.6875 C 3.890625 23.078125 3.890625 23.703125 4.28125 24.09375 L 23.90625 43.71875 C 24.09375 43.90625 24.328125 44 24.59375 44 C 24.859375 44 25.125 43.90625 25.3125 43.71875 L 29.5 39.5 L 28.78125 38.8125 C 28.019531 38.050781 27.648438 36.957031 27.65625 35.65625 C 27.675781 32.847656 29.519531 29.28125 32.5 26.375 C 37.144531 21.84375 42.480469 20.261719 44.90625 22.6875 L 45.625 23.40625 L 47.375 21.625 C 47.660156 21.359375 48.019531 20.890625 48.03125 20.0625 C 48.070313 17.207031 44.015625 11.941406 40 8 C 36.03125 4.03125 30.75 0.03125 27.875 0.03125 Z M 23.15625 3.75 L 9.875 17.0625 L 10.59375 17.78125 C 11.949219 19.136719 16.21875 17.964844 20.1875 14.09375 C 22.757813 11.585938 24.453125 8.480469 24.46875 6.21875 C 24.472656 5.453125 24.285156 4.878906 23.90625 4.5 Z M 41.96875 23.5625 C 40.011719 23.507813 36.882813 24.910156 33.90625 27.8125 C 31.335938 30.320313 29.671875 33.394531 29.65625 35.65625 C 29.652344 36.421875 29.839844 37.027344 30.21875 37.40625 L 30.90625 38.09375 L 44.1875 24.8125 L 43.5 24.09375 C 43.160156 23.753906 42.621094 23.582031 41.96875 23.5625 Z M 17 26.09375 L 21.90625 31 L 17 31 Z M 6.5 31 C 4.019531 31 2 33.019531 2 35.5 C 2 37.980469 4.019531 40 6.5 40 C 8.980469 40 11 37.980469 11 35.5 C 11 33.019531 8.980469 31 6.5 31 Z M 12.5 41 C 10.019531 41 8 43.019531 8 45.5 C 8 47.980469 10.019531 50 12.5 50 C 14.980469 50 17 47.980469 17 45.5 C 17 43.019531 14.980469 41 12.5 41 Z" />
</svg>