<?xml version="1.0"?>
<svg fill="#000000" height="50px" viewBox="0 0 50 50" width="50px"
    xmlns="http://www.w3.org/2000/svg">
    <path
        d="M 5.9160156 -0.013671875 C 5.3722656 0.010351562 4.7992188 0.11328125 4.1992188 0.30078125 C 2.4992187 0.80078125 1.2996094 1.7996094 0.59960938 3.0996094 C -0.10039062 4.3996094 -0.19921875 5.8996094 0.30078125 7.5996094 L 2.5 7 C 2.2 6 2.1007813 5.1 2.3007812 4.5 C 2.5007813 3.4 3.2996094 2.5992187 4.5996094 2.1992188 C 5.6996094 1.8992188 6.7007812 2.0003906 7.3007812 2.4003906 C 7.9007813 2.8003906 8.2996094 3.3996094 8.5996094 4.0996094 C 8.7996094 4.6996094 8.7996094 5.3003906 8.5996094 5.9003906 C 8.4996094 6.3003906 8.2996094 6.6 8.0996094 7 L 7.4003906 8.1992188 C 6.7003906 9.2992188 6.4007812 10.299609 6.3007812 11.099609 C 6.2007813 11.899609 6.3992188 12.9 6.6992188 14 L 8.6992188 13.300781 C 8.3992188 12.300781 8.3003906 11.500391 8.4003906 10.900391 C 8.5003906 10.300391 8.8003906 9.5996094 9.4003906 8.5996094 C 10.200391 7.2996094 10.700391 6.2992188 10.900391 5.6992188 C 11.100391 5.0992187 11.000781 4.3 10.800781 3.5 C 10.400781 2.1 9.6003906 1.1 8.4003906 0.5 C 7.6503906 0.125 6.8222656 -0.053710937 5.9160156 -0.013671875 z M 25 2 C 20.586 2 16.464891 3.2463438 12.962891 5.4023438 C 12.940891 5.6073438 12.92 5.812 12.875 6 C 12.859 6.102 12.8555 6.22675 12.8125 6.34375 C 12.4725 7.35975 11.698047 8.692 11.123047 9.625 C 10.685047 10.352 10.428047 10.88275 10.373047 11.21875 C 10.361047 11.29275 10.322047 11.71475 10.623047 12.71875 C 10.713047 13.01975 10.701297 13.336 10.654297 13.625 C 11.068297 13.891 11.396297 14.273 11.529297 14.75 L 12.21875 17.25 C 12.51575 18.305 11.89875 19.40975 10.84375 19.71875 L 8.46875 20.40625 C 8.28575 20.46025 8.09425 20.5 7.90625 20.5 C 7.57025 20.5 7.2385 20.414 6.9375 20.25 C 6.4685 19.988 6.11375 19.54725 5.96875 19.03125 L 5.2792969 16.53125 C 5.1702969 16.14425 5.1662969 15.76125 5.2792969 15.40625 C 5.0372969 15.16425 4.8732969 14.87125 4.7792969 14.53125 C 4.7502969 14.42425 4.7223594 14.308266 4.6933594 14.197266 C 2.9763594 17.419266 2 21.095 2 25 C 2 37.703 12.297 48 25 48 C 37.703 48 48 37.703 48 25 C 48 12.297 37.703 2 25 2 z M 19 9 C 21.32 9 22.631438 10.130766 22.773438 10.259766 C 23.182437 10.631766 23.210844 11.264828 22.839844 11.673828 C 22.469844 12.082828 21.838734 12.112234 21.427734 11.740234 C 21.401734 11.718234 20.552 11 19 11 C 17.511 11 16.274187 11.742203 14.992188 13.408203 C 14.795187 13.665203 14.499219 13.800781 14.199219 13.800781 C 13.986219 13.800781 13.772797 13.73375 13.591797 13.59375 C 13.153797 13.25675 13.071203 12.628406 13.408203 12.191406 C 14.015203 11.401406 15.862 9 19 9 z M 31 10 C 34.138 10 35.984797 12.400453 36.591797 13.189453 C 36.928797 13.627453 36.847156 14.25675 36.410156 14.59375 C 36.228156 14.73375 36.013781 14.800781 35.800781 14.800781 C 35.500781 14.800781 35.204813 14.665203 35.007812 14.408203 C 33.724813 12.742203 32.489 12 31 12 C 29.456 12 28.580266 12.732234 28.572266 12.740234 C 28.162266 13.111234 27.532156 13.081828 27.160156 12.673828 C 26.788156 12.264828 26.817563 11.631766 27.226562 11.259766 C 27.368562 11.130766 28.68 10 31 10 z M 9.5996094 15.300781 L 7.1992188 16 L 7.9003906 18.5 L 10.300781 17.800781 L 9.5996094 15.300781 z M 18 16 C 19.381 16 20.5 17.791 20.5 20 C 20.5 22.209 19.381 24 18 24 C 16.619 24 15.5 22.209 15.5 20 C 15.5 17.791 16.619 16 18 16 z M 32 16 C 33.381 16 34.5 17.791 34.5 20 C 34.5 22.209 33.381 24 32 24 C 30.619 24 29.5 22.209 29.5 20 C 29.5 17.791 30.619 16 32 16 z M 33 32 C 33.552 32 34 32.447 34 33 C 34 33.553 33.552 34 33 34 C 22.119 34 19.000047 39.264281 18.873047 39.488281 C 18.688047 39.812281 18.348047 39.996094 17.998047 39.996094 C 17.833047 39.996094 17.666672 39.955141 17.513672 39.869141 C 17.034672 39.601141 16.858047 38.999578 17.123047 38.517578 C 17.270047 38.251578 20.848 32 33 32 z" />
</svg>