<svg fill="#000000" height="50px" viewBox="0 0 50 50" width="50px"
    xmlns="http://www.w3.org/2000/svg">
    <path
        d="M 43.523438 6.476563 C 39.289063 2.242188 31.082031 2.019531 30.734375 2.011719 C 30.421875 2.015625 30.199219 2.113281 30.003906 2.304688 L 2.300781 30.011719 C 2.101563 30.210938 1.996094 30.484375 2.007813 30.761719 C 2.023438 31.101563 2.429688 39.121094 6.652344 43.347656 C 10.878906 47.570313 18.898438 47.972656 19.238281 47.988281 C 19.253906 47.992188 19.269531 47.992188 19.285156 47.992188 C 19.550781 47.992188 19.804688 47.886719 19.992188 47.699219 L 47.695313 19.992188 C 47.886719 19.800781 47.992188 19.535156 47.988281 19.265625 C 47.980469 18.917969 47.757813 10.710938 43.523438 6.476563 Z M 32.273438 10.226563 C 33.101563 10.226563 33.773438 10.894531 33.773438 11.726563 C 33.773438 12.554688 33.101563 13.226563 32.273438 13.226563 C 31.445313 13.226563 30.773438 12.554688 30.773438 11.726563 C 30.773438 10.894531 31.445313 10.226563 32.273438 10.226563 Z M 13.273438 38.226563 C 12.445313 38.226563 11.773438 37.554688 11.773438 36.726563 C 11.773438 35.898438 12.445313 35.226563 13.273438 35.226563 C 14.105469 35.226563 14.773438 35.898438 14.773438 36.726563 C 14.773438 37.554688 14.105469 38.226563 13.273438 38.226563 Z M 13.273438 32.226563 C 12.445313 32.226563 11.773438 31.554688 11.773438 30.726563 C 11.773438 29.898438 12.445313 29.226563 13.273438 29.226563 C 14.105469 29.226563 14.773438 29.898438 14.773438 30.726563 C 14.773438 31.554688 14.105469 32.226563 13.273438 32.226563 Z M 19.273438 38.226563 C 18.445313 38.226563 17.773438 37.554688 17.773438 36.726563 C 17.773438 35.898438 18.445313 35.226563 19.273438 35.226563 C 20.105469 35.226563 20.773438 35.898438 20.773438 36.726563 C 20.773438 37.554688 20.105469 38.226563 19.273438 38.226563 Z M 27.367188 32.894531 C 27.171875 33.089844 26.914063 33.1875 26.660156 33.1875 C 26.402344 33.1875 26.148438 33.089844 25.953125 32.894531 L 17.105469 24.046875 C 16.714844 23.65625 16.714844 23.023438 17.105469 22.632813 C 17.496094 22.242188 18.128906 22.242188 18.519531 22.632813 L 27.367188 31.480469 C 27.757813 31.871094 27.757813 32.503906 27.367188 32.894531 Z M 34.441406 25.816406 C 34.246094 26.011719 33.992188 26.109375 33.734375 26.109375 C 33.480469 26.109375 33.222656 26.011719 33.027344 25.816406 L 24.183594 16.972656 C 23.792969 16.578125 23.792969 15.949219 24.183594 15.558594 C 24.574219 15.164063 25.207031 15.164063 25.597656 15.558594 L 34.441406 24.402344 C 34.835938 24.792969 34.835938 25.425781 34.441406 25.816406 Z M 38.273438 19.226563 C 37.445313 19.226563 36.773438 18.554688 36.773438 17.726563 C 36.773438 16.894531 37.445313 16.226563 38.273438 16.226563 C 39.101563 16.226563 39.773438 16.894531 39.773438 17.726563 C 39.773438 18.554688 39.105469 19.226563 38.273438 19.226563 Z M 38.273438 13.226563 C 37.445313 13.226563 36.773438 12.554688 36.773438 11.726563 C 36.773438 10.894531 37.445313 10.226563 38.273438 10.226563 C 39.101563 10.226563 39.773438 10.894531 39.773438 11.726563 C 39.773438 12.554688 39.105469 13.226563 38.273438 13.226563 Z" />
</svg>