<svg fill="#000000" height="50px" viewBox="0 0 50 50" width="50px"
    xmlns="http://www.w3.org/2000/svg">
    <path
        d="M 24.875 2 C 24.613281 2.023438 24.335938 2.15625 24.1875 2.40625 C 24.085938 2.507813 22 5.210938 22 8.3125 C 22 9.914063 22.699219 11.398438 23.5 13 C 24.199219 14.5 25 16.195313 25 17.59375 C 25 18.992188 24.59375 19.898438 24.09375 21 C 23.992188 21.300781 23.789063 21.601563 23.6875 22 L 25.90625 22 C 25.90625 21.898438 26 21.914063 26 21.8125 C 26.5 20.613281 27 19.394531 27 17.59375 C 27 15.695313 26.113281 13.792969 25.3125 12.09375 C 24.613281 10.695313 24 9.414063 24 8.3125 C 24 5.914063 25.8125 3.695313 25.8125 3.59375 C 26.113281 3.195313 26.09375 2.488281 25.59375 2.1875 C 25.394531 2.039063 25.136719 1.976563 24.875 2 Z M 25.90625 22 C 25.40625 23.101563 25 24.207031 25 25.90625 C 25 28.40625 26 32.6875 26 32.6875 C 26.101563 33.1875 25.789063 33.804688 25.1875 33.90625 L 25 33.90625 C 24.5 33.90625 24.101563 33.59375 24 33.09375 C 24 32.894531 23 28.613281 23 25.8125 C 23 24.210938 23.289063 22.90625 23.6875 21.90625 C 22.023438 22.003906 20.472656 22.089844 19 22.375 C 19.003906 22.253906 19.019531 22.148438 19.09375 22 C 19.59375 20.699219 20 19.492188 20 18.09375 C 20 15.09375 17.914063 12.507813 17.8125 12.40625 C 17.414063 12.007813 16.804688 11.914063 16.40625 12.3125 C 16.007813 12.710938 15.914063 13.289063 16.3125 13.6875 C 16.3125 13.6875 18.09375 15.894531 18.09375 18.09375 C 18.09375 19.09375 17.710938 20.113281 17.3125 21.3125 C 17.113281 21.8125 16.886719 22.304688 16.6875 22.90625 C 17.351563 22.71875 18.117188 22.625 18.875 22.53125 C 18.398438 23.792969 18 25.039063 18 26.6875 C 18 27.488281 18.105469 28.585938 18.40625 29.6875 C 18.507813 30.1875 18.195313 30.804688 17.59375 30.90625 L 17.40625 30.90625 C 16.90625 30.90625 16.507813 30.59375 16.40625 30.09375 C 16.105469 28.792969 16 27.59375 16 26.59375 C 16 25.09375 16.292969 23.914063 16.59375 22.8125 C 10.292969 24.414063 6 27.5 6 31 C 6 36 14.5 40 25 40 C 35.5 40 44 36 44 31 C 44 27.300781 39.289063 24.210938 32.6875 22.8125 C 32.289063 23.8125 32 24.898438 32 26 C 32 27 32.105469 27.90625 32.40625 28.90625 C 32.507813 29.40625 32.1875 29.992188 31.6875 30.09375 L 31.5 30.09375 C 31.101563 30.09375 30.601563 29.8125 30.5 29.3125 C 30.101563 28.3125 30 27.101563 30 26 C 30 24.746094 30.277344 23.597656 30.65625 22.53125 C 31.289063 22.625 31.855469 22.722656 32.5 22.90625 C 32.800781 22.40625 32.898438 22.113281 33 21.8125 C 33.5 20.511719 34 19.210938 34 17.8125 C 34 15.710938 33.007813 12.914063 32.90625 12.8125 C 32.707031 12.3125 32.09375 11.988281 31.59375 12.1875 C 31.09375 12.386719 30.800781 13 31 13.5 C 31.300781 14.199219 31.90625 16.40625 31.90625 17.90625 C 31.90625 19.007813 31.5 20.085938 31 21.1875 C 30.816406 21.550781 30.699219 21.996094 30.53125 22.375 C 29.074219 22.1875 27.546875 22.097656 25.90625 22 Z M 2.90625 31.96875 C 2.863281 31.976563 2.820313 31.988281 2.78125 32 C 2.316406 32.105469 1.988281 32.523438 2 33 C 2 34.675781 2.757813 36.234375 4 37.5625 C 5.242188 38.890625 6.980469 40.023438 9.0625 40.96875 C 13.222656 42.859375 18.824219 44 25 44 C 31.175781 44 36.777344 42.859375 40.9375 40.96875 C 43.019531 40.023438 44.757813 38.890625 46 37.5625 C 47.242188 36.234375 48 34.675781 48 33 C 48.003906 32.640625 47.816406 32.304688 47.503906 32.121094 C 47.191406 31.941406 46.808594 31.941406 46.496094 32.121094 C 46.183594 32.304688 45.996094 32.640625 46 33 C 46 34.074219 45.523438 35.125 44.53125 36.1875 C 43.539063 37.25 42.03125 38.289063 40.125 39.15625 C 36.3125 40.890625 30.925781 42 25 42 C 19.074219 42 13.6875 40.890625 9.875 39.15625 C 7.96875 38.289063 6.460938 37.25 5.46875 36.1875 C 4.476563 35.125 4 34.074219 4 33 C 4.011719 32.710938 3.894531 32.433594 3.6875 32.238281 C 3.476563 32.039063 3.191406 31.941406 2.90625 31.96875 Z M 46.84375 40 C 46.65625 40.035156 46.484375 40.121094 46.34375 40.25 C 45.609375 40.890625 44.773438 41.457031 43.71875 42.03125 C 43.234375 42.296875 43.058594 42.90625 43.328125 43.390625 C 43.59375 43.875 44.203125 44.050781 44.6875 43.78125 C 45.832031 43.15625 46.789063 42.507813 47.65625 41.75 C 48 41.460938 48.109375 40.972656 47.917969 40.566406 C 47.726563 40.15625 47.289063 39.925781 46.84375 40 Z M 36.21875 44.78125 C 36.164063 44.789063 36.113281 44.796875 36.0625 44.8125 C 32.75 45.589844 29.035156 46 25 46 C 24.640625 45.996094 24.304688 46.183594 24.121094 46.496094 C 23.941406 46.808594 23.941406 47.191406 24.121094 47.503906 C 24.304688 47.816406 24.640625 48.003906 25 48 C 29.164063 48 33.042969 47.601563 36.53125 46.78125 C 37.082031 46.695313 37.460938 46.175781 37.375 45.625 C 37.289063 45.074219 36.769531 44.695313 36.21875 44.78125 Z" />
</svg>