<?xml version="1.0"?>
<svg fill="#000000" xmlns="http://www.w3.org/2000/svg" viewBox="0 0 30 30" width="30px"
    height="30px">
    <path
        d="M 15 3 C 14.195 3 13.47125 3.4786562 13.15625 4.2226562 L 2.3007812 22.949219 C 2.2997813 22.950219 2.297875 22.951125 2.296875 22.953125 C 2.266875 23.006125 2 23.488 2 24 C 2 25.103 2.897 26 4 26 L 26 26 C 27.103 26 28 25.103 28 24 C 28 23.492 27.754078 23.042031 27.705078 22.957031 L 16.84375 4.2207031 C 16.52975 3.4787031 15.806 3 15 3 z M 15 13 C 20 13 23 18 23 18 C 23 18 20 23 15 23 C 10 23 7 18 7 18 C 7 18 10 13 15 13 z M 15 15 C 13.343 15 12 16.343 12 18 C 12 19.657 13.343 21 15 21 C 16.657 21 18 19.657 18 18 C 18 17.537 17.886219 17.104891 17.699219 16.712891 C 17.519219 16.889891 17.273 17 17 17 C 16.448 17 16 16.552 16 16 C 16 15.727 16.110109 15.480781 16.287109 15.300781 C 15.895109 15.113781 15.463 15 15 15 z" />
</svg>